<?xml version="1.0" encoding="utf-8"?><!-- Uploaded to: SVG Repo, www.svgrepo.com, Generator: SVG Repo Mixer Tools -->
<svg fill="#000000" width="800px" height="800px" viewBox="0 0 24 24" id="dna-3" data-name="Flat Color" xmlns="http://www.w3.org/2000/svg" class="icon flat-color"><path id="primary" d="M17,12a4.18,4.18,0,0,0-2.35-3.74L14,7.93C15,7.28,17,5.35,17,3a1,1,0,0,0-2,0c0,1.42-1.51,2.89-2.19,3.34-.2.13-.49.3-.81.48-.32-.18-.61-.35-.81-.48C10.51,5.89,9,4.42,9,3A1,1,0,0,0,7,3c0,2.35,2.05,4.28,3,4.93l-.67.35a4.15,4.15,0,0,0,0,7.46l.63.33c-.93.65-3,2.58-3,4.93a1,1,0,0,0,2,0c0-1.42,1.51-2.89,2.19-3.34.2-.13.49-.3.81-.48.32.18.61.35.81.48C13.49,18.11,15,19.58,15,21a1,1,0,0,0,2,0c0-2.35-2.05-4.28-3-4.93l.67-.35A4.16,4.16,0,0,0,17,12Zm-3.27,2L12,14.89c-.86-.47-1.66-.88-1.7-.9A2.15,2.15,0,0,1,9,12a2.13,2.13,0,0,1,1.27-2L12,9.11c.86.47,1.66.88,1.7.9A2.15,2.15,0,0,1,15,12,2.13,2.13,0,0,1,13.73,14Z" style="fill: rgb(0, 0, 0);"></path></svg>